<?xml version="1.0" encoding="UTF-8"?>
<svg xmlns="http://www.w3.org/2000/svg" viewBox="0 0 90.857 90.857" width="600" height="600">
 <g transform="scale(1.7143)" fill="none" fill-rule="evenodd">
  <g transform="translate(45.933,1.767)">
   <g transform="translate(-45.933,-1.767)">
    <path fill="#0166b1" d="M42.204 26.5c0 8.679-7.025 15.704-15.704 15.704L26.5 26.5h15.704zM26.5 10.796V26.5H10.796c0-8.679 7.025-15.704 15.704-15.704z"/>
   </g>
   <path fill="#fff" d="M-19.433 9.03c8.679 0 15.704 7.025 15.704 15.704h-15.704V9.03zm-15.704 15.704h15.704v15.703c-8.679 0-15.704-7.025-15.704-15.703z"/>
  </g>
  <path d="M26.5 10.796v.861a14.843 14.843 0 0 1 14.843 14.843h.861c0-8.672-7.031-15.704-15.704-15.704zm0 30.546a14.843 14.843 0 0 1-14.843-14.843h-.861c0 8.672 7.031 15.704 15.704 15.704zM26.5 0C11.865 0 0 11.865 0 26.5S11.865 53 26.5 53 53 41.135 53 26.5 41.135 0 26.5 0zm24.777 26.5c0 13.683-11.092 24.777-24.777 24.777S1.723 40.183 1.723 26.5 12.817 1.723 26.5 1.723 51.277 12.817 51.277 26.5z" fill="#6f6f6f"/>
  <g fill="#6f6f6f" transform="translate(7.198,3.272)">
   <path d="M7.978 10.444C8.825 9.558 9.304 8.535 8.457 7.558 7.997 7.028 7.223 6.912 6.582 7.173l-.064.025.02-.056c.095-.252.156-1.056-.534-1.61-.336-.271-.758-.372-1.184-.328-.796.08-1.407.62-3.073 2.464-.503.556-1.234 1.434-1.673 2.003 0 0 4.575 4.31 4.575 4.31 1.516-1.666 2.134-2.286 3.33-3.537zM2.008 9.39C2.93 8.27 3.909 7.255 4.352 6.853c.14-.127.293-.254.478-.303.3-.082.61.13.68.436.07.308-.124.6-.34.841-.488.546-2.275 2.402-2.275 2.402l-.887-.84zm1.792 1.688s1.74-1.827 2.308-2.412c.226-.22.37-.36.526-.436.2-.098.42-.118.616.012.193.128.282.35.233.57-.057.26-.272.51-.45.7-.24.255-2.303 2.449-2.307 2.452l-.928-.874v-.012zm16.026-5.774 1.465-3.259.093-.289-.026.302.154 4.355c.514.048 1.045.119 1.568.205L22.841.169C22.11.088 21.38.03 20.652 0l-1.443 3.557-.051.264-.052-.264L17.665 0c-.729.03-1.457.088-2.189.169l-.238 6.45c.523-.087 1.054-.157 1.568-.206l.154-4.355-.026-.302.093.29 1.465 3.258 1.334.001zm12.165 6.742c.36.383.878 1.002 1.169 1.377l5.361-3.379c-.397-.511-.823-1.04-1.142-1.412l-3.395 2.229-.232.198.173-.25 1.565-2.285-1.06-1.053-2.993 1.489-.252.172.2-.23 2.247-3.37c-.396-.334-.776-.64-1.26-1.011l-3.403 5.32c.431.329 1 .813 1.362 1.142l2.835-1.796.206-.15-.151.204-1.661 3.184h-.001z"/>
  </g>
 </g>
</svg>
