<?xml version="1.0" encoding="UTF-8" standalone="no"?>
<!-- Created with Inkscape (http://www.inkscape.org/) -->

<svg
   version="1.1"
   id="svg2"
   xml:space="preserve"
   width="2663.0042"
   height="1090.0306"
   viewBox="0 0 2663.0042 1090.0306"
   sodipodi:docname="84dc7d61bae98b67b29568964344f868.ai"
   xmlns:inkscape="http://www.inkscape.org/namespaces/inkscape"
   xmlns:sodipodi="http://sodipodi.sourceforge.net/DTD/sodipodi-0.dtd"
   xmlns="http://www.w3.org/2000/svg"
   xmlns:svg="http://www.w3.org/2000/svg"><defs
     id="defs6"><clipPath
       clipPathUnits="userSpaceOnUse"
       id="clipPath16"><path
         d="M 0,817.523 H 1997.254 V 0 H 0 Z"
         id="path14" /></clipPath></defs><sodipodi:namedview
     id="namedview4"
     pagecolor="#ffffff"
     bordercolor="#666666"
     borderopacity="1.0"
     inkscape:pageshadow="2"
     inkscape:pageopacity="0.0"
     inkscape:pagecheckerboard="0" /><g
     id="g8"
     inkscape:groupmode="layer"
     inkscape:label="84dc7d61bae98b67b29568964344f868"
     transform="matrix(1.3333333,0,0,-1.3333333,-2.6666666e-4,1090.0306)"><g
       id="g10"><g
         id="g12"
         clip-path="url(#clipPath16)"><g
           id="g18"
           transform="translate(998.973,272.4755)"><path
             d="m 0,0 c -119.495,18.7 -359.687,67.086 -465.215,92.107 -81.686,19.431 -91.253,46.094 -101.133,91.539 l -0.381,1.76 c -3.031,13.913 -28.649,152.023 -39.288,210.11 L -711.933,545.048 H 716.233 L 610.317,395.516 C 600.233,340.452 574.065,199.44 571.032,185.422 l -0.383,-1.776 C 560.77,138.201 551.202,111.538 469.524,92.109 364.292,67.156 124.086,18.788 4.144,0 L 2.07,-0.324 Z"
             style="fill:#ffffff;fill-opacity:1;fill-rule:nonzero;stroke:none"
             id="path20" /></g><g
           id="g22"
           transform="translate(1689.3119,804.1328)"><path
             d="m 0,0 -92.664,-130.816 c -10.162,-55.556 -36.717,-198.658 -39.731,-212.587 -8.72,-40.052 -12.901,-64.413 -91.519,-83.119 -104.671,-24.817 -344.087,-73.067 -464.354,-91.906 -120.223,18.816 -359.524,67.089 -464.194,91.906 -78.619,18.706 -82.797,43.067 -91.521,83.119 -3.013,13.838 -29.571,157.031 -39.732,212.587 L -1376.374,0 Z"
             style="fill:#000000;fill-opacity:1;fill-rule:nonzero;stroke:none"
             id="path24" /></g><g
           id="g26"
           transform="translate(1616.2416,779.54)"><path
             d="m 0,0 h -1230.144 l 73.07,-104.331 c 18.266,-108.505 29.568,-178.264 34.25,-202.584 8.129,-42.311 9.567,-60.556 53.274,-72.338 86.905,-20.55 338.767,-72.338 454.513,-89.806 115.745,17.468 367.629,69.186 454.582,89.806 43.702,11.782 45.141,30.027 53.269,72.338 4.57,24.32 15.984,94.079 34.255,202.584 z"
             style="fill:#ffffff;fill-opacity:1;fill-rule:nonzero;stroke:none"
             id="path28" /></g><g
           id="g30"
           transform="translate(613.6624,568.895)"><path
             d="m 0,0 h -118.143 l -9.132,54.139 h 507.28 V 0 H 366.306 V 41.444 H -4.293 Z"
             style="fill:#000000;fill-opacity:1;fill-rule:nonzero;stroke:none"
             id="path32" /></g><g
           id="g34"
           transform="translate(484.3299,635.3881)"><path
             d="M 0,0 H 509.201 V 39.684 H -6.6 Z"
             style="fill:#000000;fill-opacity:1;fill-rule:nonzero;stroke:none"
             id="path36" /></g><g
           id="g38"
           transform="translate(802.8201,502.2421)"><path
             d="M 0,0 H 190.778 V 28.427 H 0.069 Z"
             style="fill:#000000;fill-opacity:1;fill-rule:nonzero;stroke:none"
             id="path40" /></g><g
           id="g42"
           transform="translate(472.7537,687.7011)"><path
             d="M 0,0 H 120.679 L 97.844,39.708 H 507.238 V 0.161 h 13.699 V 53.432 H -37.381 Z"
             style="fill:#000000;fill-opacity:1;fill-rule:nonzero;stroke:none"
             id="path44" /></g><g
           id="g46"
           transform="translate(1201.1625,741.1323)"><path
             d="M 0,0 H -192.468 V -79.76 H 0.091 Z"
             style="fill:#000000;fill-opacity:1;fill-rule:nonzero;stroke:none"
             id="path48" /></g><g
           id="g50"
           transform="translate(522.9886,433.5805)"><path
             d="m 0,0 c 3.128,-4.749 8.927,-10.277 28.178,-15.505 9.316,-2.285 19.683,-4.569 34.023,-7.764 H 266.496 V 4.885 H -2.649 C -1.937,3.179 -1.063,1.542 -0.045,0 Z"
             style="fill:#000000;fill-opacity:1;fill-rule:nonzero;stroke:none"
             id="path52" /></g><g
           id="g54"
           transform="translate(511.3196,476.5995)"><path
             d="M 0,0 H 278.166 V 79.532 H -13.675 Z"
             style="fill:#000000;fill-opacity:1;fill-rule:nonzero;stroke:none"
             id="path56" /></g><g
           id="g58"
           transform="translate(802.8201,365.0312)"><path
             d="M 0,0 C 71.243,-14.018 140.887,-26.965 190.893,-34.799 V 98.666 H 0 Z"
             style="fill:#000000;fill-opacity:1;fill-rule:nonzero;stroke:none"
             id="path60" /></g><g
           id="g62"
           transform="translate(1214.3607,568.895)"><path
             d="m 0,0 h 292.459 l 13.359,79.784 H 0 Z"
             style="fill:#000000;fill-opacity:1;fill-rule:nonzero;stroke:none"
             id="path64" /></g><g
           id="g66"
           transform="translate(1214.3607,715.7646)"><path
             d="M 0,0 V -28.315 L 314.561,-28.2 334.289,0 Z"
             style="fill:#000000;fill-opacity:1;fill-rule:nonzero;stroke:none"
             id="path68" /></g><g
           id="g70"
           transform="translate(1008.6937,502.2421)"><path
             d="M 0,0 H 13.699 V 40.167 H 377.63 c -0.48,-3.906 -3.881,-30.828 -5.639,-40.279 h 114.924 l 9.133,54.002 H 0 Z"
             style="fill:#000000;fill-opacity:1;fill-rule:nonzero;stroke:none"
             id="path72" /></g><g
           id="g74"
           transform="translate(1008.6937,450.2255)"><path
             d="m 0,0 h 477.235 l 7.714,39.526 H 0 Z"
             style="fill:#000000;fill-opacity:1;fill-rule:nonzero;stroke:none"
             id="path76" /></g><path
           d="m 1201.254,623.011 h -192.56 v -28.473 h 192.56 z"
           style="fill:#000000;fill-opacity:1;fill-rule:nonzero;stroke:none"
           id="path78" /><g
           id="g80"
           transform="translate(1116.5844,363.1376)"><path
             d="M 0,0 C -19.021,-3.632 -72.362,-12.925 -94.19,-16.876 V 61.652 H 243.048 C 226.902,42.655 193.679,37.012 0,0 M -107.891,75.328 V -32.86 c 121.32,19.843 356.898,66.561 442.617,87.888 19.364,4.819 25.095,10.665 28.223,15.414 1.031,1.53 1.892,3.166 2.559,4.886 z"
             style="fill:#000000;fill-opacity:1;fill-rule:nonzero;stroke:none"
             id="path82" /></g><g
           id="g84"
           transform="translate(56.9232,11.1269)"><path
             d="m 0,0 c -18.453,7.42 -32.552,17.709 -42.3,30.871 -9.752,13.158 -14.623,28.195 -14.623,45.105 0,16.909 4.871,31.946 14.623,45.107 9.748,13.161 23.847,23.45 42.3,30.868 18.45,7.418 40.245,11.127 65.383,11.127 42.862,0 78.956,-10.371 108.286,-31.106 v -5.744 l -11.602,-14.119 c -27.716,20.257 -59.944,30.39 -96.684,30.39 -19.983,0 -37.307,-2.632 -51.968,-7.896 -14.665,-5.265 -25.946,-12.921 -33.84,-22.973 -7.897,-10.049 -11.844,-21.936 -11.844,-35.654 0,-13.722 3.947,-25.604 11.844,-35.656 C -12.531,30.271 -1.25,22.613 13.415,17.349 28.076,12.086 45.4,9.452 65.383,9.452 c 18.37,0 35.248,2.55 50.639,7.658 15.386,5.103 30.655,12.84 45.805,23.21 L 173.669,26.202 V 20.461 C 159.167,10.25 143.172,2.432 125.69,-2.99 108.204,-8.412 88.104,-11.127 65.383,-11.127 40.245,-11.127 18.45,-7.418 0,0"
             style="fill:#000000;fill-opacity:1;fill-rule:nonzero;stroke:none"
             id="path86" /></g><g
           id="g88"
           transform="translate(400.5159,150.7538)"><path
             d="M 0,0 -54.386,-84.23 H 60.186 L 5.801,0 Z M -12.569,20.103 H 18.37 l 107.803,-161.762 v -5.744 H 101.035 L 73.479,-104.81 H -67.68 l -27.555,-42.593 h -25.139 v 5.744 z"
             style="fill:#000000;fill-opacity:1;fill-rule:nonzero;stroke:none"
             id="path90" /></g><g
           id="g92"
           transform="translate(676.3089,23.9296)"><path
             d="m 0,0 c 34.964,0 60.79,5.024 77.468,15.076 16.678,10.049 25.017,26.082 25.017,48.097 0,22.015 -8.339,38.048 -25.017,48.099 C 60.79,121.321 34.964,126.346 0,126.346 H -65.263 V 0 Z M -89.434,-20.579 V 146.927 H 4.833 c 40.446,0 70.943,-7.023 91.489,-21.058 20.545,-14.04 30.817,-34.937 30.817,-62.696 0,-27.756 -10.272,-48.659 -30.817,-62.694 C 75.776,-13.562 45.279,-20.579 4.833,-20.579 Z"
             style="fill:#000000;fill-opacity:1;fill-rule:nonzero;stroke:none"
             id="path94" /></g><path
           d="m 896.505,3.35 h -24.171 v 167.506 h 24.171 z"
           style="fill:#000000;fill-opacity:1;fill-rule:nonzero;stroke:none"
           id="path96" /><g
           id="g98"
           transform="translate(999.2308,170.8564)"><path
             d="m 0,0 v -146.927 h 167.747 l -8.218,-20.579 h -183.7 V 0 Z"
             style="fill:#000000;fill-opacity:1;fill-rule:nonzero;stroke:none"
             id="path100" /></g><g
           id="g102"
           transform="translate(1262.9369,170.8564)"><path
             d="m 0,0 v -146.927 h 167.746 l -8.218,-20.579 H -24.171 V 0 Z"
             style="fill:#000000;fill-opacity:1;fill-rule:nonzero;stroke:none"
             id="path104" /></g><g
           id="g106"
           transform="translate(1604.472,150.7538)"><path
             d="M 0,0 -54.385,-84.23 H 60.186 L 5.801,0 Z m -12.567,20.103 h 30.938 l 107.805,-161.762 v -5.744 H 101.035 L 73.48,-104.81 H -67.68 l -27.554,-42.593 h -25.138 v 5.744 z"
             style="fill:#000000;fill-opacity:1;fill-rule:nonzero;stroke:none"
             id="path108" /></g><g
           id="g110"
           transform="translate(1823.5853,11.1269)"><path
             d="m 0,0 c -18.455,7.42 -32.553,17.709 -42.301,30.871 -9.751,13.158 -14.624,28.195 -14.624,45.105 0,16.909 4.873,31.946 14.624,45.107 9.748,13.161 23.846,23.45 42.301,30.868 18.447,7.418 40.242,11.127 65.383,11.127 42.86,0 78.955,-10.371 108.285,-31.106 v -5.744 l -11.603,-14.119 c -27.716,20.257 -59.942,30.39 -96.682,30.39 -19.986,0 -37.308,-2.632 -51.968,-7.896 -14.665,-5.265 -25.948,-12.921 -33.84,-22.973 -7.898,-10.049 -11.846,-21.936 -11.846,-35.654 0,-13.722 3.948,-25.604 11.846,-35.656 7.892,-10.049 19.175,-17.707 33.84,-22.971 14.66,-5.263 31.982,-7.897 51.968,-7.897 18.369,0 35.247,2.55 50.637,7.658 15.386,5.103 30.656,12.84 45.805,23.21 L 173.668,26.202 V 20.461 C 159.165,10.25 143.171,2.432 125.689,-2.99 108.202,-8.412 88.102,-11.127 65.383,-11.127 40.242,-11.127 18.447,-7.418 0,0"
             style="fill:#000000;fill-opacity:1;fill-rule:nonzero;stroke:none"
             id="path112" /></g></g></g></g></svg>
