<?xml version="1.0"?>
<svg width="4115" height="2156" xmlns="http://www.w3.org/2000/svg" xmlns:svg="http://www.w3.org/2000/svg" clip-rule="evenodd" fill-rule="evenodd" version="1.1">
 <g class="layer">
  <title>Layer 1</title>
  <g id="svg_1">
   <path d="m1430.77,0.16c0,178.33 0,356.67 0,535c-20.33,0 -40.67,0 -61,0c0,-177.67 0,-355.33 0,-533c2.58,-0.73 5.25,-1.23 8,-1.5c17.66,-0.5 35.33,-0.67 53,-0.5z" fill="#aaabac" id="svg_2"/>
  </g>
  <g id="svg_3">
   <path d="m1430.77,0.16c11.33,0 22.67,0 34,0c0,178.33 0,356.67 0,535c-11.33,0 -22.67,0 -34,0c0,-178.33 0,-356.67 0,-535z" fill="#adaeb0" id="svg_4"/>
  </g>
  <g id="svg_5">
   <path d="m1464.77,0.16c17,0 34,0 51,0c0,178 0,356 0,534c-16.97,0.94 -33.97,1.28 -51,1c0,-178.33 0,-356.67 0,-535z" fill="#b0b1b3" id="svg_6"/>
  </g>
  <g id="svg_7">
   <path d="m1515.77,0.16c8.67,0 17.33,0 26,0c0,172 0,344 0,516c0,0.67 0,1.33 0,2c-3.02,4.02 -6.68,7.35 -11,10c-4.52,3.17 -9.52,5.17 -15,6c0,-178 0,-356 0,-534z" fill="#b3b4b6" id="svg_8"/>
  </g>
  <g id="svg_9">
   <path d="m1541.77,0.16c12.67,0 25.33,0 38,0c0,78.33 0,156.67 0,235c-19.36,6.06 -29.36,19.39 -30,40c-0.83,73.83 -1.33,147.83 -1.5,222c-0.24,7.1 -2.41,13.44 -6.5,19c0,-172 0,-344 0,-516z" fill="#b5b6b9" id="svg_10"/>
  </g>
  <g id="svg_11">
   <path d="m1579.77,0.16c11,0 22,0 33,0c0,77.67 0,155.33 0,233c-6.52,-0.32 -12.86,0.01 -19,1c-4.65,0.5 -9.32,0.83 -14,1c0,-78.33 0,-156.67 0,-235z" fill="#b8b9bd" id="svg_12"/>
  </g>
  <g id="svg_13">
   <path d="m1612.77,0.16c9,0 18,0 27,0c0,77.67 0,155.33 0,233c-9,0 -18,0 -27,0c0,-77.67 0,-155.33 0,-233z" fill="#babcc0" id="svg_14"/>
  </g>
  <g id="svg_15">
   <path d="m1639.77,0.16c13,0 26,0 39,0c0,77.67 0,155.33 0,233c-13,0 -26,0 -39,0c0,-77.67 0,-155.33 0,-233z" fill="#bdbfc3" id="svg_16"/>
  </g>
  <g id="svg_17">
   <path d="m1678.77,0.16c8.33,0 16.67,0 25,0c0,77.67 0,155.33 0,233c-8.33,0 -16.67,0 -25,0c0,-77.67 0,-155.33 0,-233z" fill="#c0c2c6" id="svg_18"/>
  </g>
  <g id="svg_19">
   <path d="m1703.77,0.16c12.33,0 24.67,0 37,0c0,77.67 0,155.33 0,233c-12.33,0 -24.67,0 -37,0c0,-77.67 0,-155.33 0,-233z" fill="#c3c5ca" id="svg_20"/>
  </g>
  <g id="svg_21">
   <path d="m1740.77,0.16c9,0 18,0 27,0c0,77.67 0,155.33 0,233c-9,0 -18,0 -27,0c0,-77.67 0,-155.33 0,-233z" fill="#c6c8cd" id="svg_22"/>
  </g>
  <g id="svg_23">
   <path d="m1767.77,0.16c13.67,0 27.33,0 41,0c0,77.67 0,155.33 0,233c-13.67,0 -27.33,0 -41,0c0,-77.67 0,-155.33 0,-233z" fill="#c9ccd1" id="svg_24"/>
  </g>
  <g id="svg_25">
   <path d="m1808.77,0.16c280.67,0 561.33,0 842,0c-55.33,77.67 -110.67,155.33 -166,233c-225.33,0 -450.67,0 -676,0c0,-77.67 0,-155.33 0,-233z" fill="#cbcfd4" id="svg_26"/>
  </g>
  <g id="svg_27">
   <path d="m2650.77,0.16c23.33,0 46.67,0 70,0c-55.59,78.93 -111.59,157.59 -168,236c-4.67,-0.72 -9.34,-1.56 -14,-2.5c-18,-0.5 -36,-0.67 -54,-0.5c55.33,-77.67 110.67,-155.33 166,-233z" fill="#c9ccd1" id="svg_28"/>
  </g>
  <g id="svg_29">
   <path d="m2720.77,0.16c14.42,-0.49 28.75,0.18 43,2c-61.33,86.33 -122.67,172.67 -184,259c-4.82,-12.82 -13.82,-21.15 -27,-25c56.41,-78.41 112.41,-157.07 168,-236z" fill="#c6c8cd" id="svg_30" opacity="1"/>
  </g>
  <g id="svg_31">
   <path d="m2763.77,2.16c14,2.91 25.83,9.58 35.5,20c2.36,2.72 4.19,5.72 5.5,9c-73.64,103.64 -147.64,206.97 -222,310c0.33,-21.51 0,-42.84 -1,-64c-0.67,-5.33 -1.33,-10.67 -2,-16c61.33,-86.33 122.67,-172.67 184,-259z" fill="#c3c5ca" id="svg_32" opacity="1"/>
  </g>
  <g id="svg_33">
   <path d="m1369.77,2.16c0,177.67 0,355.33 0,533c-7.33,0 -14.67,0 -22,0c0,-175 0,-350 0,-525c6.74,-4.03 14.08,-6.7 22,-8z" fill="#a7a8a9" id="svg_34" opacity="1"/>
  </g>
  <g id="svg_35">
   <path d="m1347.77,10.16c0,175 0,350 0,525c-32.33,0 -64.67,0 -97,0c0,-78 0,-156 0,-234c8.34,0.17 16.67,0 25,-0.5c22.14,-1.81 34.97,-13.64 38.5,-35.5c1.16,-67.99 1.83,-135.99 2,-204c2.24,-22.34 12.74,-39.34 31.5,-51z" fill="#a5a5a6" id="svg_36" opacity="1"/>
  </g>
  <g id="svg_37">
   <path d="m2804.77,31.16c3.34,4.81 5.84,10.15 7.5,16c2.25,8.19 3.42,16.52 3.5,25c-77.67,108 -155.33,216 -233,324c0,-18.33 0,-36.67 0,-55c74.36,-103.03 148.36,-206.36 222,-310z" fill="#c0c2c6" id="svg_38" opacity="1"/>
  </g>
  <g id="svg_39">
   <path d="m2815.77,72.16c0,28.33 0,56.67 0,85c-77.64,107.82 -155.14,215.82 -232.5,324c-0.5,-28.33 -0.67,-56.66 -0.5,-85c77.67,-108 155.33,-216 233,-324z" fill="#bdbfc3" id="svg_40"/>
  </g>
  <g id="svg_41">
   <path d="m2815.77,157.16c0,19 0,38 0,57c-74.02,102.7 -147.69,205.7 -221,309c-5.27,-4.85 -8.77,-10.85 -10.5,-18c-1.44,-5.92 -2.27,-11.92 -2.5,-18c0,-70 0,-140 0,-210c1,21.16 1.33,42.49 1,64c0,18.33 0,36.67 0,55c-0.17,28.34 0,56.67 0.5,85c77.36,-108.18 154.86,-216.18 232.5,-324z" fill="#bbbcbf" id="svg_42"/>
  </g>
  <g id="svg_43">
   <path d="m2815.77,214.16c-0.17,14 0,28 0.5,42c0.2,7.51 1.37,14.84 3.5,22c-61.57,85.45 -122.9,171.12 -184,257c-12.38,1.48 -24.04,-0.69 -35,-6.5c-2.5,-1.33 -4.5,-3.16 -6,-5.5c73.31,-103.3 146.98,-206.3 221,-309z" fill="#b8babd" id="svg_44"/>
  </g>
  <g id="svg_45">
   <path d="m1593.77,234.16c154.33,0 308.67,0 463,0c0,85.33 0,170.67 0,256c0,1 0,2 0,3c-169,-1.18 -338,-2.18 -507,-3c0,-71.67 0,-143.33 0,-215c0.64,-20.61 10.64,-33.94 30,-40c4.68,-0.17 9.35,-0.5 14,-1z" fill="#cda535" id="svg_46"/>
  </g>
  <g id="svg_47">
   <path d="m1593.77,234.16c6.14,-0.99 12.48,-1.32 19,-1c9,0 18,0 27,0c13,0 26,0 39,0c8.33,0 16.67,0 25,0c12.33,0 24.67,0 37,0c9,0 18,0 27,0c13.67,0 27.33,0 41,0c225.33,0 450.67,0 676,0c18,-0.17 36,0 54,0.5c4.66,0.94 9.33,1.78 14,2.5c13.18,3.85 22.18,12.18 27,25c0.67,5.33 1.33,10.67 2,16c0,70 0,140 0,210c-175,0.88 -350,1.88 -525,3c0,-85.33 0,-170.67 0,-256c-154.33,0 -308.67,0 -463,0z" fill="#d3b36b" id="svg_48"/>
  </g>
  <g id="svg_49">
   <path d="m2819.77,278.16c7.24,14.88 19.24,22.54 36,23c-55.67,78 -111.33,156 -167,234c-17.67,0 -35.33,0 -53,0c61.1,-85.88 122.43,-171.55 184,-257z" fill="#b5b6b9" id="svg_50" opacity="1"/>
  </g>
  <g id="svg_51">
   <path d="m502.77,301.16c0,114.33 0,228.67 0,343c-0.61,0.89 -0.94,1.89 -1,3c-6.94,12.87 -13.6,25.87 -20,39c-3.84,6.35 -7.17,13.02 -10,20c-4.1,5.86 -7.43,12.19 -10,19c-1.93,2.87 -3.6,5.87 -5,9c0,-142.67 0,-285.33 0,-428c15.06,-3.7 30.39,-5.37 46,-5z" fill="#c3c5ca" id="svg_52" opacity="1"/>
  </g>
  <g id="svg_53">
   <path d="m502.77,301.16c9.67,0 19.33,0 29,0c0,95 0,190 0,285c-2.28,5.31 -4.62,10.64 -7,16c-4.17,7.02 -7.84,14.35 -11,22c-4.19,6.38 -7.85,13.04 -11,20c0,-114.33 0,-228.67 0,-343z" fill="#c0c2c6" id="svg_54" opacity="1"/>
  </g>
  <g id="svg_55">
   <path d="m531.77,301.16c15.33,0 30.67,0 46,0c0,78.33 0,156.67 0,235c-16.16,2.83 -27.16,11.83 -33,27c-4.08,7.83 -8.41,15.5 -13,23c0,-95 0,-190 0,-285z" fill="#bdbfc3" id="svg_56" opacity="1"/>
  </g>
  <g id="svg_57">
   <path d="m577.77,301.16c10,0 20,0 30,0c0,78 0,156 0,234c-10.02,-0.13 -20.02,0.2 -30,1c0,-78.33 0,-156.67 0,-235z" fill="#babcc0" id="svg_58" opacity="1"/>
  </g>
  <g id="svg_59">
   <path d="m607.77,301.16c12.67,0 25.33,0 38,0c0,78 0,156 0,234c-12.67,0 -25.33,0 -38,0c0,-78 0,-156 0,-234z" fill="#b8babd" id="svg_60" opacity="1"/>
  </g>
  <g id="svg_61">
   <path d="m645.77,301.16c13,0 26,0 39,0c0,78 0,156 0,234c-13,0 -26,0 -39,0c0,-78 0,-156 0,-234z" fill="#b5b6b9" id="svg_62" opacity="1"/>
  </g>
  <g id="svg_63">
   <path d="m684.77,301.16c9.67,0 19.33,0 29,0c0,78 0,156 0,234c-9.67,0 -19.33,0 -29,0c0,-78 0,-156 0,-234z" fill="#b3b4b6" id="svg_64" opacity="1"/>
  </g>
  <g id="svg_65">
   <path d="m713.77,301.16c16.33,0 32.67,0 49,0c0,78 0,156 0,234c-16.33,0 -32.67,0 -49,0c0,-78 0,-156 0,-234z" fill="#b0b1b3" id="svg_66" opacity="1"/>
  </g>
  <g id="svg_67">
   <path d="m762.77,301.16c11,0 22,0 33,0c0,78 0,156 0,234c-11,0 -22,0 -33,0c0,-78 0,-156 0,-234z" fill="#adaeaf" id="svg_68" opacity="1"/>
  </g>
  <g id="svg_69">
   <path d="m795.77,301.16c18.33,0 36.67,0 55,0c0,78 0,156 0,234c-18.33,0 -36.67,0 -55,0c0,-78 0,-156 0,-234z" fill="#aaabac" id="svg_70" opacity="1"/>
  </g>
  <g id="svg_71">
   <path d="m850.77,301.16c6,0 12,0 18,0c0,78 0,156 0,234c-6,0 -12,0 -18,0c0,-78 0,-156 0,-234z" fill="#a7a8a9" id="svg_72" opacity="1"/>
  </g>
  <g id="svg_73">
   <path d="m868.77,301.16c26.67,0 53.33,0 80,0c0,78 0,156 0,234c-26.67,0 -53.33,0 -80,0c0,-78 0,-156 0,-234z" fill="#a4a5a5" id="svg_74" opacity="1"/>
  </g>
  <g id="svg_75">
   <path d="m948.77,301.16c28,0 56,0 84,0c0,78 0,156 0,234c-28,0 -56,0 -84,0c0,-78 0,-156 0,-234z" fill="#9f9f9f" id="svg_76" opacity="1"/>
  </g>
  <g id="svg_77">
   <path d="m1032.77,301.16c17.33,0 34.67,0 52,0c0,78 0,156 0,234c-17.33,0 -34.67,0 -52,0c0,-78 0,-156 0,-234z" fill="#9c9d9b" id="svg_78" opacity="1"/>
  </g>
  <g id="svg_79">
   <path d="m1084.77,301.16c52.67,0 105.33,0 158,0c0,78 0,156 0,234c-52.67,0 -105.33,0 -158,0c0,-78 0,-156 0,-234z" fill="#9f9f9e" id="svg_80" opacity="1"/>
  </g>
  <g id="svg_81">
   <path d="m1242.77,301.16c2.67,0 5.33,0 8,0c0,78 0,156 0,234c-2.67,0 -5.33,0 -8,0c0,-78 0,-156 0,-234z" fill="#a2a3a2" id="svg_82" opacity="1"/>
  </g>
  <g id="svg_83">
   <path d="m2855.77,301.16c12.67,0 25.33,0 38,0c-55.33,78 -110.67,156 -166,234c-13,0 -26,0 -39,0c55.67,-78 111.33,-156 167,-234z" fill="#b3b4b6" id="svg_84" opacity="1"/>
  </g>
  <g id="svg_85">
   <path d="m2893.77,301.16c22.33,0 44.67,0 67,0c-55.67,78 -111.33,156 -167,234c-22,0 -44,0 -66,0c55.33,-78 110.67,-156 166,-234z" fill="#b0b1b3" id="svg_86" opacity="1"/>
  </g>
  <g id="svg_87">
   <path d="m2960.77,301.16c14.33,0 28.67,0 43,0c-55.67,78 -111.33,156 -167,234c-14.33,0 -28.67,0 -43,0c55.67,-78 111.33,-156 167,-234z" fill="#adaeaf" id="svg_88" opacity="1"/>
  </g>
  <g id="svg_89">
   <path d="m3003.77,301.16c24.67,0 49.33,0 74,0c-55.67,78 -111.33,156 -167,234c-24.67,0 -49.33,0 -74,0c55.67,-78 111.33,-156 167,-234z" fill="#aaabac" id="svg_90" opacity="1"/>
  </g>
  <g id="svg_91">
   <path d="m3077.77,301.16c8,0 16,0 24,0c-55.67,78 -111.33,156 -167,234c-8,0 -16,0 -24,0c55.67,-78 111.33,-156 167,-234z" fill="#a7a8a9" id="svg_92" opacity="1"/>
  </g>
  <g id="svg_93">
   <path d="m3101.77,301.16c35.67,0 71.33,0 107,0c-55.67,78 -111.33,156 -167,234c-35.67,0 -71.33,0 -107,0c55.67,-78 111.33,-156 167,-234z" fill="#a4a5a5" id="svg_94" opacity="1"/>
  </g>
  <g id="svg_95">
   <path d="m3208.77,301.16c37.33,0 74.67,0 112,0c-55.67,78 -111.33,156 -167,234c-37.33,0 -74.67,0 -112,0c55.67,-78 111.33,-156 167,-234z" fill="#9f9f9f" id="svg_96" opacity="1"/>
  </g>
  <g id="svg_97">
   <path d="m3320.77,301.16c23.33,0 46.67,0 70,0c-55.67,78 -111.33,156 -167,234c-23.33,0 -46.67,0 -70,0c55.67,-78 111.33,-156 167,-234z" fill="#9c9d9b" id="svg_98" opacity="1"/>
  </g>
  <g id="svg_99">
   <path d="m3390.77,301.16c70.67,0 141.33,0 212,0c-0.63,2.59 -1.8,4.92 -3.5,7c-54.39,75.55 -108.55,151.21 -162.5,227c-71,0 -142,0 -213,0c55.67,-78 111.33,-156 167,-234z" fill="#9f9f9e" id="svg_100" opacity="1"/>
  </g>
  <g id="svg_101">
   <path d="m3602.77,301.16c47,0 94,0 141,0c-55.67,78 -111.33,156 -167,234c-46.67,0 -93.33,0 -140,0c53.95,-75.79 108.11,-151.45 162.5,-227c1.7,-2.08 2.87,-4.41 3.5,-7z" fill="#a4a5a5" id="svg_102" opacity="1"/>
  </g>
  <g id="svg_103">
   <path d="m3743.77,301.16c9.67,0 19.33,0 29,0c-55.17,78.32 -110.83,156.32 -167,234c-9.67,0 -19.33,0 -29,0c55.67,-78 111.33,-156 167,-234z" fill="#a7a8a9" id="svg_104" opacity="1"/>
  </g>
  <g id="svg_105">
   <path d="m3772.77,301.16c27,0 54,0 81,0c-0.63,2.59 -1.8,4.92 -3.5,7c-54.39,75.55 -108.55,151.21 -162.5,227c-27.33,0 -54.67,0 -82,0c56.17,-77.68 111.83,-155.68 167,-234z" fill="#aaabac" id="svg_106" opacity="1"/>
  </g>
  <g id="svg_107">
   <path d="m3853.77,301.16c15.33,0 30.67,0 46,0c-0.21,1.42 -0.71,2.76 -1.5,4c-56.8,78.28 -112.97,156.95 -168.5,236c-5.54,-3.06 -11.54,-4.89 -18,-5.5c-7.99,-0.5 -15.99,-0.67 -24,-0.5c53.95,-75.79 108.11,-151.45 162.5,-227c1.7,-2.08 2.87,-4.41 3.5,-7z" fill="#adaeaf" id="svg_108" opacity="1"/>
  </g>
  <g id="svg_109">
   <path d="m3899.77,301.16c22.67,0 45.33,0 68,0c-82.49,115.64 -164.99,231.3 -247.5,347c-1.31,1.69 -2.81,3.03 -4.5,4c1.27,-2.21 2.27,-4.55 3,-7c10.31,-18.62 20.15,-37.62 29.5,-57c1.19,-6.28 1.69,-12.61 1.5,-19c-2.26,-12.54 -8.93,-21.87 -20,-28c55.53,-79.05 111.7,-157.72 168.5,-236c0.79,-1.24 1.29,-2.58 1.5,-4z" fill="#b0b1b3" id="svg_110" opacity="1"/>
  </g>
  <g id="svg_111">
   <path d="m3967.77,301.16c11.67,0 23.33,0 35,0c-0.63,2.59 -1.8,4.92 -3.5,7c-122.05,169.72 -243.72,339.72 -365,510c-2.05,3.21 -4.55,5.88 -7.5,8c5.06,-10.04 10.06,-20.04 15,-30c13.16,-24.32 25.83,-48.99 38,-74c5.51,-9.68 10.51,-19.68 15,-30c7.49,-12.98 14.49,-26.32 21,-40c1.69,-0.97 3.19,-2.31 4.5,-4c82.51,-115.7 165.01,-231.36 247.5,-347z" fill="#b3b4b6" id="svg_112" opacity="1"/>
  </g>
  <g id="svg_113">
   <path d="m4002.77,301.16c8.67,0 17.33,0 26,0c-213.59,299.59 -427.59,598.93 -642,898c-8.33,0 -16.67,0 -25,0c55.67,-78 111.33,-156 167,-234c16.31,0.27 28.81,-6.4 37.5,-20c9.86,-19.72 19.69,-39.39 29.5,-59c10.83,-19.65 21.16,-39.65 31,-60c2.95,-2.12 5.45,-4.79 7.5,-8c121.28,-170.28 242.95,-340.28 365,-510c1.7,-2.08 2.87,-4.41 3.5,-7z" fill="#b4b6b8" id="svg_114" opacity="1"/>
  </g>
  <g id="svg_115">
   <path d="m4028.77,301.16c8.36,-0.12 16.69,0.21 25,1c-213.92,298.85 -427.59,597.85 -641,897c-8.67,0 -17.33,0 -26,0c214.41,-299.07 428.41,-598.41 642,-898z" fill="#b6b7ba" id="svg_116"/>
  </g>
  <g id="svg_117">
   <path d="m4053.77,302.16c12.88,1.95 24.54,6.62 35,14c-210.67,294.33 -421.33,588.67 -632,883c-14.67,0 -29.33,0 -44,0c213.41,-299.15 427.08,-598.15 641,-897z" fill="#b8babd" id="svg_118"/>
  </g>
  <g id="svg_119">
   <path d="m456.77,306.16c0,142.67 0,285.33 0,428c-3.6,6.87 -6.94,13.87 -10,21c-1.91,2.8 -3.57,5.8 -5,9c-5.66,11.29 -11.33,22.62 -17,34c-0.33,0 -0.67,0 -1,0c0.33,-159.17 0,-318.17 -1,-477c10.05,-7.69 21.38,-12.69 34,-15z" fill="#c6c8cd" id="svg_120" opacity="1"/>
  </g>
  <g id="svg_121">
   <path d="m4088.77,316.16c8.91,5.57 15.24,13.24 19,23c-205,286.67 -410,573.33 -615,860c-12,0 -24,0 -36,0c210.67,-294.33 421.33,-588.67 632,-883z" fill="#babcc0" id="svg_122"/>
  </g>
  <g id="svg_123">
   <path d="m422.77,321.16c1,158.83 1.33,317.83 1,477c-1.74,4.48 -3.74,8.82 -6,13c-6.89,12.78 -13.56,25.78 -20,39c-7.17,13.02 -13.84,26.35 -20,40c-1.91,2.8 -3.57,5.8 -5,9c-0.67,-169.33 -1.33,-338.67 -2,-508c7.04,-15.09 14.88,-29.76 23.5,-44c7.49,-11 16.99,-19.66 28.5,-26z" fill="#c9ccd1" id="svg_124" opacity="1"/>
  </g>
  <g id="svg_125">
   <path d="m4107.77,339.16c2.89,4.5 4.72,9.5 5.5,15c2.23,12.16 1.56,24.16 -2,36c-10.08,21.83 -20.91,43.16 -32.5,64c-178.23,248.12 -356.23,496.45 -534,745c-17.33,0 -34.67,0 -52,0c205,-286.67 410,-573.33 615,-860z" fill="#bdbfc3" id="svg_126" opacity="1"/>
  </g>
  <g id="svg_127">
   <path d="m370.77,391.16c0.67,169.33 1.33,338.67 2,508c-6.75,9.94 -9.42,20.94 -8,33c1.31,6.59 3.98,12.59 8,18c-1,82.83 -1.33,165.83 -1,249c-106.36,0.48 -212.69,-0.02 -319,-1.5c-37.72,-10.41 -55.22,-35.24 -52.5,-74.5c1.02,-5.41 2.35,-10.75 4,-16c121.94,-238.88 244.11,-477.55 366.5,-716z" fill="#ccced4" id="svg_128" opacity="1"/>
  </g>
  <g id="svg_129">
   <path d="m4078.77,454.16c-27.16,54.32 -54.83,108.32 -83,162c-139.57,194.12 -278.9,388.45 -418,583c-11,0 -22,0 -33,0c177.77,-248.55 355.77,-496.88 534,-745z" fill="#c0c2c6" id="svg_130" opacity="1"/>
  </g>
  <g id="svg_131">
   <path d="m2581.77,487.16c0.23,6.08 1.06,12.08 2.5,18c1.73,7.15 5.23,13.15 10.5,18c1.5,2.34 3.5,4.17 6,5.5c10.96,5.81 22.62,7.98 35,6.5c17.67,0 35.33,0 53,0c13,0 26,0 39,0c22,0 44,0 66,0c14.33,0 28.67,0 43,0c24.67,0 49.33,0 74,0c8,0 16,0 24,0c35.67,0 71.33,0 107,0c37.33,0 74.67,0 112,0c23.33,0 46.67,0 70,0c71,0 142,0 213,0c46.67,0 93.33,0 140,0c9.67,0 19.33,0 29,0c27.33,0 54.67,0 82,0c8.01,-0.17 16.01,0 24,0.5c6.46,0.61 12.46,2.44 18,5.5c11.07,6.13 17.74,15.46 20,28c-564.33,3.21 -1128.66,6.21 -1693,9c0,-2.33 0,-4.67 0,-7c0,-13 0,-26 0,-39c0,-3.33 0,-6.67 0,-10c0,-9.67 0,-19.33 0,-29c0,-1 0,-2 0,-3c175,-1.12 350,-2.12 525,-3z" fill="#d2b166" id="svg_132"/>
  </g>
  <g id="svg_133">
   <path d="m1549.77,275.16c0,71.67 0,143.33 0,215c169,0.82 338,1.82 507,3c0,9.67 0,19.33 0,29c-171.83,-0.92 -343.5,-2.26 -515,-4c0,-0.67 0,-1.33 0,-2c4.09,-5.56 6.26,-11.9 6.5,-19c0.17,-74.17 0.67,-148.17 1.5,-222z" fill="#cea73c" id="svg_134"/>
  </g>
  <g id="svg_135">
   <path d="m1541.77,518.16c171.5,1.74 343.17,3.08 515,4c0,3.33 0,6.67 0,10c-175.5,-0.5 -350.84,-1.83 -526,-4c4.32,-2.65 7.98,-5.98 11,-10z" fill="#cfa93d" id="svg_136"/>
  </g>
  <g id="svg_137">
   <path d="m1530.77,528.16c175.16,2.17 350.5,3.5 526,4c0,13 0,26 0,39c-504,-2.67 -1008,-5.33 -1512,-8c5.84,-15.17 16.84,-24.17 33,-27c9.98,-0.8 19.98,-1.13 30,-1c12.67,0 25.33,0 38,0c13,0 26,0 39,0c9.67,0 19.33,0 29,0c16.33,0 32.67,0 49,0c11,0 22,0 33,0c18.33,0 36.67,0 55,0c6,0 12,0 18,0c26.67,0 53.33,0 80,0c28,0 56,0 84,0c17.33,0 34.67,0 52,0c52.67,0 105.33,0 158,0c2.67,0 5.33,0 8,0c32.33,0 64.67,0 97,0c7.33,0 14.67,0 22,0c20.33,0 40.67,0 61,0c11.33,0 22.67,0 34,0c17.03,0.28 34.03,-0.06 51,-1c5.48,-0.83 10.48,-2.83 15,-6z" fill="#d0aa43" id="svg_138"/>
  </g>
  <g id="svg_139">
   <path d="m544.77,563.16c504,2.67 1008,5.33 1512,8c0,2.33 0,4.67 0,7c0,11 0,22 0,33c-510.66,-3.33 -1021.33,-6.33 -1532,-9c2.38,-5.36 4.72,-10.69 7,-16c4.59,-7.5 8.92,-15.17 13,-23z" fill="#d2ad47" id="svg_140"/>
  </g>
  <g id="svg_141">
   <path d="m3749.77,569.16c0.19,6.39 -0.31,12.72 -1.5,19c-9.35,19.38 -19.19,38.38 -29.5,57c-554,2.88 -1108,5.54 -1662,8c0,-6.33 0,-12.67 0,-19c0,-7.67 0,-15.33 0,-23c0,-11 0,-22 0,-33c564.34,-2.79 1128.67,-5.79 1693,-9z" fill="#d2b060" id="svg_142"/>
  </g>
  <g id="svg_143">
   <path d="m524.77,602.16c510.67,2.67 1021.34,5.67 1532,9c0,7.67 0,15.33 0,23c-514.33,-3.35 -1028.66,-6.69 -1543,-10c3.16,-7.65 6.83,-14.98 11,-22z" fill="#d3af4c" id="svg_144"/>
  </g>
  <g id="svg_145">
   <path d="m3995.77,616.16c-41.16,81.65 -82.83,162.99 -125,244c-81.36,112.7 -162.36,225.7 -243,339c-16.67,0 -33.33,0 -50,0c139.1,-194.55 278.43,-388.88 418,-583z" fill="#c3c5ca" id="svg_146" opacity="1"/>
  </g>
  <g id="svg_147">
   <path d="m513.77,624.16c514.34,3.31 1028.67,6.65 1543,10c0,6.33 0,12.67 0,19c0,1 0,2 0,3c-518.34,-2.72 -1036.67,-5.72 -1555,-9c0.06,-1.11 0.39,-2.11 1,-3c3.15,-6.96 6.81,-13.62 11,-20z" fill="#d4b04f" id="svg_148"/>
  </g>
  <g id="svg_149">
   <path d="m3718.77,645.16c-0.73,2.45 -1.73,4.79 -3,7c-6.51,13.68 -13.51,27.02 -21,40c-13,-0.67 -26.16,-1 -39.5,-1c-532.83,3.12 -1065.66,5.78 -1598.5,8c0,-1 0,-2 0,-3c0,-13.33 0,-26.67 0,-40c0,-1 0,-2 0,-3c554,-2.46 1108,-5.12 1662,-8z" fill="#d1af5b" id="svg_150"/>
  </g>
  <g id="svg_151">
   <path d="m501.77,647.16c518.33,3.28 1036.66,6.28 1555,9c0,13.33 0,26.67 0,40c-525,-3.38 -1050,-6.71 -1575,-10c6.4,-13.13 13.06,-26.13 20,-39z" fill="#d6b254" id="svg_152"/>
  </g>
  <g id="svg_153">
   <path d="m481.77,686.16c525,3.29 1050,6.62 1575,10c0,1 0,2 0,3c0,5.67 0,11.33 0,17c-528.5,-2.5 -1056.84,-5.83 -1585,-10c2.83,-6.98 6.16,-13.65 10,-20z" fill="#d7b459" id="svg_154"/>
  </g>
  <g id="svg_155">
   <path d="m3694.77,692.16c-4.49,10.32 -9.49,20.32 -15,30c-30.33,-0.67 -60.83,-1 -91.5,-1c-510.5,2.54 -1021,5.21 -1531.5,8c0,-4.33 0,-8.67 0,-13c0,-5.67 0,-11.33 0,-17c532.84,-2.22 1065.67,-4.88 1598.5,-8c13.34,0 26.5,0.33 39.5,1z" fill="#d1ae58" id="svg_156"/>
  </g>
  <g id="svg_157">
   <path d="m471.77,706.16c528.16,4.17 1056.5,7.5 1585,10c0,4.33 0,8.67 0,13c0,2 0,4 0,6c-531.69,-3.04 -1063.35,-6.37 -1595,-10c2.57,-6.81 5.9,-13.14 10,-19z" fill="#d8b65c" id="svg_158"/>
  </g>
  <g id="svg_159">
   <path d="m3679.77,722.16c-12.17,25.01 -24.84,49.68 -38,74c-528.33,2.93 -1056.66,5.59 -1585,8c0,-10 0,-20 0,-30c0,-2.67 0,-5.33 0,-8c0,-10.33 0,-20.67 0,-31c0,-2 0,-4 0,-6c510.5,-2.79 1021,-5.46 1531.5,-8c30.67,0 61.17,0.33 91.5,1z" fill="#d1ad54" id="svg_160"/>
  </g>
  <g id="svg_161">
   <path d="m461.77,725.16c531.65,3.63 1063.31,6.96 1595,10c0,10.33 0,20.67 0,31c-532.33,-3.16 -1064.67,-6.33 -1597,-9.5c-4.52,-0.17 -8.85,-0.67 -13,-1.5c3.06,-7.13 6.4,-14.13 10,-21c1.4,-3.13 3.07,-6.13 5,-9z" fill="#d9b75f" id="svg_162"/>
  </g>
  <g id="svg_163">
   <path d="m446.77,755.16c4.15,0.83 8.48,1.33 13,1.5c532.33,3.17 1064.67,6.34 1597,9.5c0,2.67 0,5.33 0,8c-538.5,-2.7 -1076.84,-6.03 -1615,-10c1.43,-3.2 3.09,-6.2 5,-9z" fill="#dab962" id="svg_164"/>
  </g>
  <g id="svg_165">
   <path d="m441.77,764.16c538.16,3.97 1076.5,7.3 1615,10c0,10 0,20 0,30c0,1 0,2 0,3c-544,-2.95 -1088,-5.95 -1632,-9c5.67,-11.38 11.34,-22.71 17,-34z" fill="#dbba65" id="svg_166"/>
  </g>
  <g id="svg_167">
   <path d="m3641.77,796.16c-4.94,9.96 -9.94,19.96 -15,30c-9.84,20.35 -20.17,40.35 -31,60c-28.83,-0.67 -57.83,-1 -87,-1c-484,2.64 -968,4.98 -1452,7c0,-10.33 0,-20.67 0,-31c0,-13 0,-26 0,-39c0,-5 0,-10 0,-15c0,-1 0,-2 0,-3c528.34,-2.41 1056.67,-5.07 1585,-8z" fill="#d0ab4e" id="svg_168"/>
  </g>
  <g id="svg_169">
   <path d="m423.77,798.16c0.33,0 0.67,0 1,0c544,3.05 1088,6.05 1632,9c0,5 0,10 0,15c-525,-3.25 -1050,-6.42 -1575,-9.5c-21.5,-0.17 -42.84,-0.67 -64,-1.5c2.26,-4.18 4.26,-8.52 6,-13z" fill="#dcbc69" id="svg_170"/>
  </g>
  <g id="svg_171">
   <path d="m417.77,811.16c21.16,0.83 42.5,1.33 64,1.5c525,3.08 1050,6.25 1575,9.5c0,13 0,26 0,39c-542.67,-3.04 -1085.33,-6.21 -1628,-9.5c-10.51,-0.17 -20.84,-0.67 -31,-1.5c6.44,-13.22 13.11,-26.22 20,-39z" fill="#ddbd6d" id="svg_172"/>
  </g>
  <g id="svg_173">
   <path d="m397.77,850.16c10.16,0.83 20.49,1.33 31,1.5c542.67,3.29 1085.33,6.46 1628,9.5c0,10.33 0,20.67 0,31c0,3 0,6 0,9c-559.76,-3.66 -1119.43,-7.32 -1679,-11c6.16,-13.65 12.83,-26.98 20,-40z" fill="#dfc073" id="svg_174"/>
  </g>
  <g id="svg_175">
   <path d="m3870.77,860.16c-47.22,93.44 -94.72,186.77 -142.5,280c-22.13,38.56 -55.63,58.23 -100.5,59c80.64,-113.3 161.64,-226.3 243,-339z" fill="#c6c8ce" id="svg_176" opacity="0.99"/>
  </g>
  <g id="svg_177">
   <path d="m3595.77,886.16c-9.81,19.61 -19.64,39.28 -29.5,59c-8.69,13.6 -21.19,20.27 -37.5,20c-12.3,0.92 -24.64,1.25 -37,1c-22.33,0 -44.67,0 -67,0c-15.33,0 -30.67,0 -46,0c-27.33,0 -54.67,0 -82,0c-9.67,0 -19.33,0 -29,0c-46.67,0 -93.33,0 -140,0c-71,0 -142,0 -213,0c-23.33,0 -46.67,0 -70,0c-37.33,0 -74.67,0 -112,0c-38,-0.17 -76,0 -114,0.5c-21.94,3.31 -33.78,16.15 -35.5,38.5c-0.5,56.67 -0.67,113.33 -0.5,170c0.17,17 0,34 -0.5,51c-3.21,26.05 -18.05,39.39 -44.5,40c-160.33,0 -320.67,0 -481,0c0,-93 0,-186 0,-279c0,-15 0,-30 0,-45c0,-13.67 0,-27.33 0,-41c0,-3 0,-6 0,-9c484,-2.02 968,-4.36 1452,-7c29.17,0 58.17,0.33 87,1z" fill="#cfa946" id="svg_178"/>
  </g>
  <g id="svg_179">
   <path d="m377.77,890.16c559.57,3.68 1119.24,7.34 1679,11c0,13.67 0,27.33 0,41c-564,-3.52 -1128,-6.86 -1692,-10c-1.42,-12.06 1.25,-23.06 8,-33c1.43,-3.2 3.09,-6.2 5,-9z" fill="#e1c379" id="svg_180"/>
  </g>
  <g id="svg_181">
   <path d="m364.77,932.16c564,3.14 1128,6.48 1692,10c0,15 0,30 0,45c-171.34,-0.49 -342.67,-1.49 -514,-3c-0.33,0 -0.67,0 -1,0c-5.62,-10.15 -14.29,-15.82 -26,-17c-1.98,-0.5 -3.98,-1 -6,-1.5c-15,-0.5 -30,-0.67 -45,-0.5c-11.33,0 -22.67,0 -34,0c-20.33,0 -40.67,0 -61,0c-7.33,0 -14.67,0 -22,0c-32.33,0 -64.67,0 -97,0c-2.67,0 -5.33,0 -8,0c-52.67,0 -105.33,0 -158,0c-17.33,0 -34.67,0 -52,0c-28,0 -56,0 -84,0c-26.67,0 -53.33,0 -80,0c-6,0 -12,0 -18,0c-18.33,0 -36.67,0 -55,0c-11,0 -22,0 -33,0c-16.33,0 -32.67,0 -49,0c-9.67,0 -19.33,0 -29,0c-13,0 -26,0 -39,0c-12.67,0 -25.33,0 -38,0c-10,0 -20,0 -30,0c-15.33,0 -30.67,0 -46,0c-9.67,0 -19.33,0 -29,0c-15.33,0 -30.67,0 -46,0c-11,0 -22,0 -33,0c-15.65,1.78 -30.31,-1.05 -44,-8.5c-2.2,-2.37 -4.54,-4.54 -7,-6.5c-4.02,-5.41 -6.69,-11.41 -8,-18z" fill="#e3c57f" id="svg_182"/>
  </g>
  <g id="svg_183">
   <path d="m372.77,950.16c2.46,1.96 4.8,4.13 7,6.5c13.69,7.45 28.35,10.28 44,8.5c0,78 0,156 0,234c-17.33,0 -34.67,0 -52,0c-0.33,-83.17 0,-166.17 1,-249z" fill="#c9ccd1" id="svg_184"/>
  </g>
  <g id="svg_185">
   <path d="m423.77,965.16c11,0 22,0 33,0c0,78 0,156 0,234c-11,0 -22,0 -33,0c0,-78 0,-156 0,-234z" fill="#c6c8cd" id="svg_186"/>
  </g>
  <g id="svg_187">
   <path d="m456.77,965.16c15.33,0 30.67,0 46,0c0,78 0,156 0,234c-15.33,0 -30.67,0 -46,0c0,-78 0,-156 0,-234z" fill="#c3c5ca" id="svg_188"/>
  </g>
  <g id="svg_189">
   <path d="m502.77,965.16c9.67,0 19.33,0 29,0c0,78 0,156 0,234c-9.67,0 -19.33,0 -29,0c0,-78 0,-156 0,-234z" fill="#c0c2c6" id="svg_190"/>
  </g>
  <g id="svg_191">
   <path d="m531.77,965.16c15.33,0 30.67,0 46,0c0,78 0,156 0,234c-15.33,0 -30.67,0 -46,0c0,-78 0,-156 0,-234z" fill="#bdbfc3" id="svg_192"/>
  </g>
  <g id="svg_193">
   <path d="m577.77,965.16c10,0 20,0 30,0c0,78 0,156 0,234c-10,0 -20,0 -30,0c0,-78 0,-156 0,-234z" fill="#babcc0" id="svg_194"/>
  </g>
  <g id="svg_195">
   <path d="m607.77,965.16c12.67,0 25.33,0 38,0c0,78 0,156 0,234c-12.67,0 -25.33,0 -38,0c0,-78 0,-156 0,-234z" fill="#b8babd" id="svg_196"/>
  </g>
  <g id="svg_197">
   <path d="m645.77,965.16c13,0 26,0 39,0c0,78 0,156 0,234c-13,0 -26,0 -39,0c0,-78 0,-156 0,-234z" fill="#b5b6b9" id="svg_198"/>
  </g>
  <g id="svg_199">
   <path d="m684.77,965.16c9.67,0 19.33,0 29,0c0,78 0,156 0,234c-9.67,0 -19.33,0 -29,0c0,-78 0,-156 0,-234z" fill="#b3b4b6" id="svg_200"/>
  </g>
  <g id="svg_201">
   <path d="m713.77,965.16c16.33,0 32.67,0 49,0c0,78 0,156 0,234c-16.33,0 -32.67,0 -49,0c0,-78 0,-156 0,-234z" fill="#b0b1b3" id="svg_202"/>
  </g>
  <g id="svg_203">
   <path d="m762.77,965.16c11,0 22,0 33,0c0,78 0,156 0,234c-11,0 -22,0 -33,0c0,-78 0,-156 0,-234z" fill="#adaeaf" id="svg_204"/>
  </g>
  <g id="svg_205">
   <path d="m795.77,965.16c18.33,0 36.67,0 55,0c0,78 0,156 0,234c-18.33,0 -36.67,0 -55,0c0,-78 0,-156 0,-234z" fill="#aaabac" id="svg_206"/>
  </g>
  <g id="svg_207">
   <path d="m850.77,965.16c6,0 12,0 18,0c0,78 0,156 0,234c-6,0 -12,0 -18,0c0,-78 0,-156 0,-234z" fill="#a7a8a9" id="svg_208"/>
  </g>
  <g id="svg_209">
   <path d="m868.77,965.16c26.67,0 53.33,0 80,0c0,78 0,156 0,234c-26.67,0 -53.33,0 -80,0c0,-78 0,-156 0,-234z" fill="#a4a5a5" id="svg_210"/>
  </g>
  <g id="svg_211">
   <path d="m948.77,965.16c28,0 56,0 84,0c0,78 0,156 0,234c-28,0 -56,0 -84,0c0,-78 0,-156 0,-234z" fill="#9f9f9f" id="svg_212"/>
  </g>
  <g id="svg_213">
   <path d="m1032.77,965.16c17.33,0 34.67,0 52,0c0,78 0,156 0,234c-17.33,0 -34.67,0 -52,0c0,-78 0,-156 0,-234z" fill="#9c9d9b" id="svg_214"/>
  </g>
  <g id="svg_215">
   <path d="m1084.77,965.16c52.67,0 105.33,0 158,0c0,78 0,156 0,234c-52.67,0 -105.33,0 -158,0c0,-78 0,-156 0,-234z" fill="#9f9f9e" id="svg_216"/>
  </g>
  <g id="svg_217">
   <path d="m1242.77,965.16c2.67,0 5.33,0 8,0c0,78 0,156 0,234c-2.67,0 -5.33,0 -8,0c0,-78 0,-156 0,-234z" fill="#a2a3a2" id="svg_218"/>
  </g>
  <g id="svg_219">
   <path d="m1250.77,965.16c32.33,0 64.67,0 97,0c0,175 0,350 0,525c-18.5,-10.96 -29,-27.29 -31.5,-49c-1.3,-68.65 -1.96,-137.32 -2,-206c-3.68,-22.34 -16.84,-34.18 -39.5,-35.5c-7.99,-0.5 -15.99,-0.67 -24,-0.5c0,-78 0,-156 0,-234z" fill="#a5a5a6" id="svg_220" opacity="1"/>
  </g>
  <g id="svg_221">
   <path d="m1347.77,965.16c7.33,0 14.67,0 22,0c0,177.67 0,355.33 0,533c-7.92,-1.3 -15.25,-3.97 -22,-8c0,-175 0,-350 0,-525z" fill="#a7a8a9" id="svg_222" opacity="1"/>
  </g>
  <g id="svg_223">
   <path d="m1369.77,965.16c20.33,0 40.67,0 61,0c0,178.33 0,356.67 0,535c-18,0.17 -36,0 -54,-0.5c-2.42,-0.29 -4.75,-0.79 -7,-1.5c0,-177.67 0,-355.33 0,-533z" fill="#aaabac" id="svg_224"/>
  </g>
  <g id="svg_225">
   <path d="m1430.77,965.16c11.33,0 22.67,0 34,0c0,178.33 0,356.67 0,535c-11.33,0 -22.67,0 -34,0c0,-178.33 0,-356.67 0,-535z" fill="#adaeb0" id="svg_226"/>
  </g>
  <g id="svg_227">
   <path d="m1464.77,965.16c15,-0.17 30,0 45,0.5c2.02,0.5 4.02,1 6,1.5c0,177.67 0,355.33 0,533c-17,0 -34,0 -51,0c0,-178.33 0,-356.67 0,-535z" fill="#b0b1b3" id="svg_228"/>
  </g>
  <g id="svg_229">
   <path d="m3528.77,965.16c-55.67,78 -111.33,156 -167,234c-12,0 -24,0 -36,0c55.33,-77.67 110.67,-155.33 166,-233c12.36,0.25 24.7,-0.08 37,-1z" fill="#b3b4b6" id="svg_230"/>
  </g>
  <g id="svg_231">
   <path d="m2732.77,966.16c-49.28,70.23 -99.28,139.9 -150,209c-0.17,-56.67 0,-113.33 0.5,-170c1.72,-22.35 13.56,-35.19 35.5,-38.5c38,-0.5 76,-0.67 114,-0.5z" fill="#a4a4a5" id="svg_232"/>
  </g>
  <g id="svg_233">
   <path d="m2732.77,966.16c37.33,0 74.67,0 112,0c-127.02,178.02 -254.02,356.02 -381,534c-37.33,0 -74.67,0 -112,0c55.08,-77.81 110.41,-155.48 166,-233c6.85,0.32 13.52,-0.01 20,-1c26.45,-0.61 41.29,-13.95 44.5,-40c0.5,-17 0.67,-34 0.5,-51c50.72,-69.1 100.72,-138.77 150,-209z" fill="#9f9f9f" id="svg_234"/>
  </g>
  <g id="svg_235">
   <path d="m2844.77,966.16c23.33,0 46.67,0 70,0c-127.02,178.02 -254.02,356.02 -381,534c-23.33,0 -46.67,0 -70,0c126.98,-177.98 253.98,-355.98 381,-534z" fill="#9c9d9b" id="svg_236"/>
  </g>
  <g id="svg_237">
   <path d="m2914.77,966.16c71,0 142,0 213,0c-55.36,77.68 -110.69,155.35 -166,233c-36.69,-0.42 -73.35,0.08 -110,1.5c-23.97,4.37 -35.8,18.87 -35.5,43.5c-0.5,53 -0.67,106 -0.5,159c-23.57,32.12 -46.9,64.45 -70,97c-70.67,0 -141.33,0 -212,0c126.98,-177.98 253.98,-355.98 381,-534z" fill="#9f9f9e" id="svg_238"/>
  </g>
  <g id="svg_239">
   <path d="m3127.77,966.16c46.67,0 93.33,0 140,0c-55.33,77.67 -110.67,155.33 -166,233c-46.67,0 -93.33,0 -140,0c55.31,-77.65 110.64,-155.32 166,-233z" fill="#a4a5a5" id="svg_240"/>
  </g>
  <g id="svg_241">
   <path d="m3267.77,966.16c9.67,0 19.33,0 29,0c-55.08,77.81 -110.41,155.48 -166,233c-9.67,0 -19.33,0 -29,0c55.33,-77.67 110.67,-155.33 166,-233z" fill="#a7a8a9" id="svg_242"/>
  </g>
  <g id="svg_243">
   <path d="m3296.77,966.16c27.33,0 54.67,0 82,0c-55.59,77.52 -110.92,155.19 -166,233c-27.33,0 -54.67,0 -82,0c55.59,-77.52 110.92,-155.19 166,-233z" fill="#aaabac" id="svg_244"/>
  </g>
  <g id="svg_245">
   <path d="m3378.77,966.16c15.33,0 30.67,0 46,0c-55.59,77.52 -110.92,155.19 -166,233c-15.33,0 -30.67,0 -46,0c55.08,-77.81 110.41,-155.48 166,-233z" fill="#adaeaf" id="svg_246"/>
  </g>
  <g id="svg_247">
   <path d="m3424.77,966.16c22.33,0 44.67,0 67,0c-55.33,77.67 -110.67,155.33 -166,233c-22.33,0 -44.67,0 -67,0c55.08,-77.81 110.41,-155.48 166,-233z" fill="#b0b1b3" id="svg_248"/>
  </g>
  <g id="svg_249">
   <path d="m1515.77,967.16c11.71,1.18 20.38,6.85 26,17c0,172 0,344 0,516c-8.67,0 -17.33,0 -26,0c0,-177.67 0,-355.33 0,-533z" fill="#b3b4b6" id="svg_250"/>
  </g>
  <g id="svg_251">
   <path d="m1541.77,984.16c0.33,0 0.67,0 1,0c2.68,5.71 4.52,11.71 5.5,18c0.03,76.35 0.7,152.68 2,229c2.19,18.02 12.02,29.35 29.5,34c0,78.33 0,156.67 0,235c-12.67,0 -25.33,0 -38,0c0,-172 0,-344 0,-516z" fill="#b5b6b9" id="svg_252"/>
  </g>
  <g id="svg_253">
   <path d="m1542.77,984.16c171.33,1.51 342.66,2.51 514,3c0,93 0,186 0,279c160.33,0 320.67,0 481,0c-6.48,0.99 -13.15,1.32 -20,1c-35.67,0 -71.33,0 -107,0c-8.33,0 -16.67,0 -25,0c-24.67,0 -49.33,0 -74,0c-14.33,0 -28.67,0 -43,0c-22,0 -44,0 -66,0c-12.67,0 -25.33,0 -38,0c-36,0 -72,0 -108,0c-82.67,0 -165.33,0 -248,0c-13.67,0 -27.33,0 -41,0c-9,0 -18,0 -27,0c-12.33,0 -24.67,0 -37,0c-8.33,0 -16.67,0 -25,0c-13,0 -26,0 -39,0c-9,0 -18,0 -27,0c-11.07,0.28 -22.07,-0.38 -33,-2c-17.48,-4.65 -27.31,-15.98 -29.5,-34c-1.3,-76.32 -1.97,-152.65 -2,-229c-0.98,-6.29 -2.82,-12.29 -5.5,-18z" fill="#e4c785" id="svg_254"/>
  </g>
  <g id="svg_255">
   <path d="m2933.77,1237.16c34.75,-0.22 60.91,14.45 78.5,44c17.85,40.07 11.02,75.24 -20.5,105.5c-30.84,21.91 -63.17,24.24 -97,7c-37.26,-26.17 -48.76,-61 -34.5,-104.5c14.71,-31.22 39.21,-48.55 73.5,-52zm-7,15c41.7,-2.59 68.2,16.08 79.5,56c4.4,35.71 -9.44,61.54 -41.5,77.5c-35.2,11.49 -63.7,2.32 -85.5,-27.5c-17.72,-33.84 -12.89,-64.01 14.5,-90.5c9.93,-7.58 20.93,-12.75 33,-15.5zm-6,34c12.05,-0.37 24.05,0.13 36,1.5c10.42,3.56 13.25,10.4 8.5,20.5c-2.78,3.31 -6.28,5.47 -10.5,6.5c-11.33,0.5 -22.66,0.67 -34,0.5c0,-9.67 0,-19.33 0,-29z" fill="#4b4c4d" id="svg_256" opacity="0.96"/>
  </g>
  <g id="svg_257">
   <path d="m1579.77,1265.16c10.93,1.62 21.93,2.28 33,2c0,77.67 0,155.33 0,233c-11,0 -22,0 -33,0c0,-78.33 0,-156.67 0,-235z" fill="#b8babd" id="svg_258"/>
  </g>
  <g id="svg_259">
   <path d="m1612.77,1267.16c9,0 18,0 27,0c0,77.67 0,155.33 0,233c-9,0 -18,0 -27,0c0,-77.67 0,-155.33 0,-233z" fill="#babcc0" id="svg_260"/>
  </g>
  <g id="svg_261">
   <path d="m1639.77,1267.16c13,0 26,0 39,0c0,77.67 0,155.33 0,233c-13,0 -26,0 -39,0c0,-77.67 0,-155.33 0,-233z" fill="#bdbfc3" id="svg_262"/>
  </g>
  <g id="svg_263">
   <path d="m1678.77,1267.16c8.33,0 16.67,0 25,0c0,77.67 0,155.33 0,233c-8.33,0 -16.67,0 -25,0c0,-77.67 0,-155.33 0,-233z" fill="#c0c2c6" id="svg_264"/>
  </g>
  <g id="svg_265">
   <path d="m1703.77,1267.16c12.33,0 24.67,0 37,0c0,77.67 0,155.33 0,233c-12.33,0 -24.67,0 -37,0c0,-77.67 0,-155.33 0,-233z" fill="#c3c5ca" id="svg_266"/>
  </g>
  <g id="svg_267">
   <path d="m1740.77,1267.16c9,0 18,0 27,0c0,77.67 0,155.33 0,233c-9,0 -18,0 -27,0c0,-77.67 0,-155.33 0,-233z" fill="#c6c8cd" id="svg_268"/>
  </g>
  <g id="svg_269">
   <path d="m1767.77,1267.16c13.67,0 27.33,0 41,0c0,77.67 0,155.33 0,233c-13.67,0 -27.33,0 -41,0c0,-77.67 0,-155.33 0,-233z" fill="#c9ccd1" id="svg_270"/>
  </g>
  <g id="svg_271">
   <path d="m1808.77,1267.16c82.67,0 165.33,0 248,0c0,50 0,100 0,150c0,18 0,36 0,54c0,9.67 0,19.33 0,29c-82.67,0 -165.33,0 -248,0c0,-77.67 0,-155.33 0,-233z" fill="#cbcfd4" id="svg_272"/>
  </g>
  <g id="svg_273">
   <path d="m2056.77,1267.16c36,0 72,0 108,0c-35.64,50.3 -71.64,100.3 -108,150c0,-50 0,-100 0,-150z" fill="#b5b7b9" id="svg_274"/>
  </g>
  <g id="svg_275">
   <path d="m2164.77,1267.16c12.67,0 25.33,0 38,0c-48.31,68.3 -96.98,136.3 -146,204c0,-18 0,-36 0,-54c36.36,-49.7 72.36,-99.7 108,-150z" fill="#b2b4b6" id="svg_276"/>
  </g>
  <g id="svg_277">
   <path d="m2202.77,1267.16c22,0 44,0 66,0c-55.33,77.67 -110.67,155.33 -166,233c-15.33,0 -30.67,0 -46,0c0,-9.67 0,-19.33 0,-29c49.02,-67.7 97.69,-135.7 146,-204z" fill="#b0b1b3" id="svg_278"/>
  </g>
  <g id="svg_279">
   <path d="m2268.77,1267.16c14.33,0 28.67,0 43,0c-55.08,77.81 -110.41,155.48 -166,233c-14.33,0 -28.67,0 -43,0c55.33,-77.67 110.67,-155.33 166,-233z" fill="#adaeaf" id="svg_280"/>
  </g>
  <g id="svg_281">
   <path d="m2311.77,1267.16c24.67,0 49.33,0 74,0c-55.08,77.81 -110.41,155.48 -166,233c-24.67,0 -49.33,0 -74,0c55.59,-77.52 110.92,-155.19 166,-233z" fill="#aaabac" id="svg_282"/>
  </g>
  <g id="svg_283">
   <path d="m2385.77,1267.16c8.33,0 16.67,0 25,0c-55.59,77.52 -110.92,155.19 -166,233c-8.33,0 -16.67,0 -25,0c55.59,-77.52 110.92,-155.19 166,-233z" fill="#a7a8a9" id="svg_284"/>
  </g>
  <g id="svg_285">
   <path d="m2410.77,1267.16c35.67,0 71.33,0 107,0c-55.59,77.52 -110.92,155.19 -166,233c-35.67,0 -71.33,0 -107,0c55.08,-77.81 110.41,-155.48 166,-233z" fill="#a4a5a5" id="svg_286"/>
  </g>
  <g id="svg_287">
   <path d="m2906.77,1274.16c18.7,-0.4 37.37,0.1 56,1.5c14.7,4.38 20.86,14.22 18.5,29.5c-1.52,9.85 -7.02,16.35 -16.5,19.5c-3.72,0.62 -7.39,1.45 -11,2.5c8.63,13.76 17.63,27.26 27,40.5c-5.7,0.83 -11.36,0.66 -17,-0.5c-8.46,-12.75 -16.79,-25.58 -25,-38.5c-5.99,-0.5 -11.99,-0.67 -18,-0.5c0,13.33 0,26.67 0,40c-4.67,0 -9.33,0 -14,0c0,-31.33 0,-62.67 0,-94zm14,12c0,9.67 0,19.33 0,29c11.34,0.17 22.67,0 34,-0.5c4.22,-1.03 7.72,-3.19 10.5,-6.5c4.75,-10.1 1.92,-16.94 -8.5,-20.5c-11.95,-1.37 -23.95,-1.87 -36,-1.5z" fill="#4b4c4d" id="svg_288" opacity="0.95"/>
  </g>
  <g id="svg_289">
   <path d="m2815.77,1403.16c0.39,14.38 -0.11,28.71 -1.5,43c-6.26,29.25 -24.09,46.75 -53.5,52.5c-4.96,0.91 -9.96,1.41 -15,1.5c23.1,-32.55 46.43,-64.88 70,-97z" fill="#a2a3a2" id="svg_290" opacity="0.98"/>
  </g>
  <g id="svg_291">
   <path d="m133.77,1797.16c104,0 208,0 312,0c0,20 0,40 0,60c-87.06,-0.49 -174.06,0.01 -261,1.5c-6.9,2.9 -10.73,8.07 -11.5,15.5c-0.67,68.33 -0.67,136.67 0,205c0.78,7.45 4.61,12.61 11.5,15.5c86.94,1.49 173.94,1.99 261,1.5c0,20 0,40 0,60c-104.67,0.17 -209.33,0 -314,-0.5c-26.15,-4.49 -42.32,-19.65 -48.5,-45.5c-0.67,-88.67 -0.67,-177.33 0,-266c6.11,-27.28 22.95,-42.95 50.5,-47z" fill="#4b4c4d" id="svg_292" opacity="0.99"/>
  </g>
  <g id="svg_293">
   <path d="m485.77,1797.16c30.33,0 60.67,0 91,0c0,47 0,94 0,141c66.33,0 132.67,0 199,0c0,-47 0,-94 0,-141c30.33,0 60.67,0 91,0c0,119.67 0,239.33 0,359c-30.33,0 -60.67,0 -91,0c0,-52.67 0,-105.33 0,-158c-66.33,0 -132.67,0 -199,0c0,52.67 0,105.33 0,158c-30.33,0 -60.67,0 -91,0c0,-119.67 0,-239.33 0,-359z" fill="#4b4c4d" id="svg_294" opacity="0.99"/>
  </g>
  <g id="svg_295">
   <path d="m995.77,1797.16c105,0 210,0 315,0c0,20 0,40 0,60c-87.33,-0.17 -174.67,0 -262,0.5c-6.74,1.74 -11.24,5.9 -13.5,12.5c-1.43,22.63 -1.93,45.29 -1.5,68c92.67,0 185.33,0 278,0c0,20 0,40 0,60c-92.67,0 -185.33,0 -278,0c-0.17,26 0,52 0.5,78c0.12,10.11 4.96,16.61 14.5,19.5c96.33,0.5 192.67,0.67 289,0.5c0,20 0,40 0,60c-114.67,0.17 -229.33,0 -344,-0.5c-27.63,-4.29 -44.13,-20.13 -49.5,-47.5c-0.67,-87.67 -0.67,-175.33 0,-263c5.8,-28.3 22.97,-44.3 51.5,-48z" fill="#4b4c4d" id="svg_296" opacity="0.99"/>
  </g>
  <g id="svg_297">
   <path d="m1340.77,1797.16c31.57,-0.33 63.07,0 94.5,1c41.26,98.8 83.09,197.3 125.5,295.5c7,2 14,2 21,0c2.12,-1.73 3.62,-3.9 4.5,-6.5c40.79,-96.58 81.29,-193.25 121.5,-290c31.67,-0.33 63.34,0 95,1c-49.62,111.9 -99.78,223.57 -150.5,335c-8.07,14.06 -20.24,21.56 -36.5,22.5c-14.83,0.17 -29.67,0.33 -44.5,0.5c-16.87,0.12 -33.7,-0.38 -50.5,-1.5c-11.71,-1.93 -20.88,-7.77 -27.5,-17.5c-9.91,-19.37 -19.24,-39.04 -28,-59c-42.07,-93.46 -83.57,-187.13 -124.5,-281z" fill="#4b4c4d" id="svg_298" opacity="0.99"/>
  </g>
  <g id="svg_299">
   <path d="m1839.77,1797.16c117.67,-0.17 235.33,0 353,0.5c30.12,3.12 47.62,19.62 52.5,49.5c0.67,36.33 0.67,72.67 0,109c-3.76,26.36 -18.59,42.53 -44.5,48.5c-28.31,1.26 -56.64,1.93 -85,2c64.81,49.31 129.48,98.81 194,148.5c-45.66,1.17 -91.33,1.33 -137,0.5c-65.33,-54 -130.67,-108 -196,-162c-9.83,-9.47 -12.33,-20.64 -7.5,-33.5c4.21,-7.21 10.37,-11.71 18.5,-13.5c50.67,-0.33 101.33,-0.67 152,-1c7.43,-1.76 12.26,-6.26 14.5,-13.5c0.67,-20.33 0.67,-40.67 0,-61c-1.94,-7.6 -6.77,-12.1 -14.5,-13.5c-70,-0.5 -140,-0.67 -210,-0.5c0,99.67 0,199.33 0,299c-30,0 -60,0 -90,0c0,-119.67 0,-239.33 0,-359z" fill="#4b4c4d" id="svg_300" opacity="0.99"/>
  </g>
  <g id="svg_301">
   <path d="m2375.77,1797.16c103.33,-0.17 206.67,0 310,0.5c31.58,5.59 48.42,24.42 50.5,56.5c0.67,81.67 0.67,163.33 0,245c-2.08,32.08 -18.92,50.91 -50.5,56.5c-103.67,0.67 -207.33,0.67 -311,0c-28.08,-4.42 -44.58,-20.58 -49.5,-48.5c-0.67,-87 -0.67,-174 0,-261c5.22,-28.39 22.05,-44.72 50.5,-49zm54,60c67,-0.17 134,0 201,0.5c8.25,1.91 13.08,7.08 14.5,15.5c0.67,68.67 0.67,137.33 0,206c-1.28,8.61 -6.11,14.11 -14.5,16.5c-66.67,0.67 -133.33,0.67 -200,0c-9.78,-2.69 -14.95,-9.19 -15.5,-19.5c-0.67,-66.33 -0.67,-132.67 0,-199c0.23,-10.17 5.06,-16.83 14.5,-20z" fill="#4b4c4d" id="svg_302" opacity="0.99"/>
  </g>
  <g id="svg_303">
   <path d="m2813.77,1797.16c30.33,0 60.67,0 91,0c0,99.67 0,199.33 0,299c93,0 186,0 279,0c0,20 0,40 0,60c-123.33,0 -246.67,0 -370,0c0,-119.67 0,-239.33 0,-359z" fill="#4b4c4d" id="svg_304" opacity="0.99"/>
  </g>
  <g id="svg_305">
   <path d="m3263.77,1797.16c105,0 210,0 315,0c0,20 0,40 0,60c-87,-0.17 -174,0 -261,0.5c-8.14,1.47 -12.97,6.31 -14.5,14.5c-0.5,22 -0.67,44 -0.5,66c92.33,0 184.67,0 277,0c0,20 0,40 0,60c-92.33,0 -184.67,0 -277,0c-0.17,27.34 0,54.67 0.5,82c1.72,8.06 6.56,13.22 14.5,15.5c96,0.5 192,0.67 288,0.5c0,20 0,40 0,60c-114.67,0.17 -229.33,0 -344,-0.5c-29.88,-4.88 -46.38,-22.38 -49.5,-52.5c-0.67,-84.33 -0.67,-168.67 0,-253c3.55,-31.04 20.71,-48.71 51.5,-53z" fill="#4b4c4d" id="svg_306" opacity="0.99"/>
  </g>
  <g id="svg_307">
   <path d="m3625.77,1797.16c135,0 270,0 405,0c0,20 0,40 0,60c-52.67,0 -105.33,0 -158,0c0,99.67 0,199.33 0,299c-30,0 -60,0 -90,0c0,-99.67 0,-199.33 0,-299c-52.33,0 -104.67,0 -157,0c0,-20 0,-40 0,-60z" fill="#4b4c4d" id="svg_308" opacity="0.99"/>
  </g>
 </g>
</svg>