<svg width="600" height="120.96" xmlns="http://www.w3.org/2000/svg" viewBox="0 0 600 120.96"><path d="M38.9 88.92a66.77 66.77 0 0 0-20.22-3.08c-6.86 0-10.63 1.88-10.63 3.94 0 2.4 4.29 4.8 14.74 4.8 6.34 0 11.48-2.23 16.1-5.66m76.42-2.23 9.6-14.22c.5-2.74-.7-4.28-3.1-4.28-7.36 0-16.44 13.53-16.44 19.19 0 1.71.68 2.57 2.4 2.57 1.37 0 3.08-.69 5.14-1.89l2.4-1.37Zm198.23-14.9c0-2.4-1.03-3.6-3.26-3.6-5.14 0-15.42 16.96-15.42 20.39 0 2.4 1.03 3.6 3.25 3.6 5.15 0 15.43-16.97 15.43-20.4m76.4 16.63 10.8-15.94c.52-2.57-.68-4.28-3.08-4.28-2.91 0-7.2 2.74-10.97 7.54-1.88 2.22-3.94 5.82-5.48 9.76-1.37 3.6.51 10.28 8.74 2.92M258.19 68.87c-.85 0-2.22.52-3.6 1.2l-2.73 1.37-4.46 6.17c-4.97 6.86-5.48 9.77-5.48 11.31 0 1.72 1.03 3.26 3.42 3.26 2.92 0 6-2.4 9.94-8.91 3.6-6 5.14-9.08 5.14-11.83 0-1.88-.85-2.57-2.23-2.57M398.34 18c-1.54 0-2.22.34-5.65 5.31-2.91 4.28-3.08 5.49-3.08 6.34 0 1.03.51 2.06 2.05 2.06 1.71 0 3.43-1.2 5.83-4.97 1.88-3.26 2.57-5.14 2.57-6.68 0-1.2-.52-2.06-1.72-2.06m-30.84.52c-1.54-1.03-3.25-.7-6.68 4.96-2.91 4.8-3.08 7.37-1.71 8.06 1.71.85 3.26-.35 6.34-5.14 2.05-3.26 3.6-6.86 2.05-7.88m-80.86 0c-1.55-1.03-3.26-.7-6.68 4.96-2.92 4.8-3.09 7.37-1.72 8.06 1.72.85 3.26-.35 6.34-5.14 2.06-3.26 3.6-6.86 2.06-7.88m-92.7 9.76 5.15-7.7c.34-1.72-.35-2.58-1.89-2.58-4.45 0-9.25 7.37-9.25 10.8 0 1.02.34 1.36 1.37 1.36 1.2 0 2.57-.5 4.63-1.88m313.7 10.97c5.48 0 8.91 3.25 8.91 6.85 0 4.8-5.48 8.22-10.8 8.22-5.47 0-8.9-3.25-8.9-6.85 0-4.8 5.48-8.22 10.8-8.22M89.25 87.89c1.55-10.28 14.74-27.4 30.5-27.4 4.11 0 7.88 1.36 10.62 3.76l1.89-2.91h16.62l-18.5 27.75 16.95-8.22 13.03-19.53h17.13l-4.63 6.85 11.65-5.65c3.6-1.72 4.97-2.06 7.03-2.06 4.97 0 7.02 4.45 6.34 8.22l12.85-6.16c3.6-1.72 4.97-2.06 7.02-2.06 5.31 0 8.91 5.83 4.46 12.5l-10.45 15.77 16.78-8.05 26.4-39.58h17.12l-13.7 20.56c2.4-.69 5.48-1.2 8.05-1.2 5.48 0 9.94 2.06 9.94 9.6 0 3.94-1.55 9.08-4.29 12.33l12-5.82c5.82-9.94 14.9-16.1 26.9-16.1 7.02 0 13.7 1.7 15.93 6.84l16.1-7.88c8.57 1.89 18.68 2.74 27.76 3.43l-7.2 10.8c-8.73 1.88-15.24 10.27-15.24 13.18 0 2.06 3.25 3.09 7.88.86l10.45-5.14c3.77-9.08 14.9-22.1 28.95-22.1 4.11 0 8.23 1.54 10.45 3.94l2.06-3.08h17.13l-18.33 27.41 17.13-8.4 26.22-39.23h17.13L449.23 68.2l11.65-5.65c3.6-1.72 4.97-2.06 7.02-2.06 5.32 0 8.91 5.83 4.46 12.5L461.9 88.76l16.79-8.22 12.85-19.2h17.13l-18.33 27.42 16.96-8.22 12.85-19.2h17.13l-4.45 6.69 11.48-5.48c3.6-1.72 5.14-2.06 7.02-2.06 5.31 0 8.91 5.83 4.46 12.5l-10.45 15.77 16.62-8.05 13.02-19.36h17.13l-18.33 27.41 21.75-10.62 2.92 5.65-29.3 14.05c-3.08 1.54-4.97 2.06-7.2 2.06-5.3 0-7.36-4.97-5.99-9.25l-15.08 7.19c-3.77 1.71-4.97 2.06-7.02 2.06-5.31 0-8.74-6-4.46-12.51l10.45-15.76-14.05 6.85-13.7 20.56h-17.14l5.49-8.22-14.56 7.02c-3.6 1.71-5.32 2.06-7.37 2.06-5.66 0-7.37-5.14-6-9.43l-15.08 7.37c-3.6 1.71-4.96 2.06-7.02 2.06-5.31 0-8.91-5.83-4.46-12.51l10.46-15.76-14.05 6.85-13.71 20.56h-17.13l5.65-8.4-17.13 8.4-8.4 12.68c-3.42 5.31-10.62 9.25-18.67 9.25a20.68 20.68 0 0 1-15.6-6.68l3.26-4.46c2.4 2.06 6 3.26 8.9 3.26 3.1-.17 5.32-1.72 7.38-4.63L383.95 98c-2.74 1.03-6.16 1.89-9.08 1.89-6 0-9.08-2.4-9.76-9.6l-10.97 5.31c-6.34 3.09-10.28 4.29-14.22 4.29-6.51 0-9.77-2.92-9.77-7.71 0-7.71 6.17-15.25 18-20.56a60.73 60.73 0 0 1-11.66-2.06l-8.9 4.28c0 3.43-1.38 7.37-4.8 12.34-5.66 8.22-14.57 13.7-25.36 13.7-9.94 0-16.79-3.42-16.79-10.96 0-1.2 0-2.57.34-3.94l-17.81 8.74c-9.6 4.62-16.45 6.17-22.96 6.17-8.91 0-15.08-3.6-14.57-10.97l-18.33 8.91c-3.6 1.71-4.97 2.06-7.02 2.06-5.31 0-8.91-5.83-4.46-12.51l10.45-15.76-14.05 6.85-13.7 20.56H161.9l18.16-27.41-14.05 6.85-13.7 20.56h-17.14l5.31-7.88-13.7 6.68c-2.57 1.2-4.97 2.06-7.03 2.06-2.91 0-5.82-2.06-6.34-5.14-5.14 3.6-10.28 5.14-14.56 5.14-4.97 0-7.37-1.37-8.74-5.49l-8.22 3.94a23.37 23.37 0 0 1-10.8 2.58c-5.14 0-11.3-3.43-19.19-7.03a51.97 51.97 0 0 1-27.58 7.7C9.77 101.6 0 96.8 0 89.96c0-7.88 10.1-14.74 28.44-14.74 7.88 0 14.56 1.38 20.56 3.26C68.53 53.29 82.92 8.4 128.33 8.4c18.5 0 27.24 7.36 27.24 15.24 0 16.28-29.13 22.45-45.57 15.08l2.57-4.62c26.38 3.94 35.29-18.68 14.56-18.68-28.44 0-38.38 44.38-63.4 69.05 6.52 3.08 12.17 5.82 17.14 5.82 2.4 0 4.62-.51 8.4-2.4M580.3 47.46c0-4.8 5.48-8.22 10.8-8.22 5.47 0 8.9 3.25 8.9 6.85 0 4.8-5.48 8.22-10.8 8.22-5.48 0-8.9-3.25-8.9-6.85M269.85 31.01l-7.88 3.09c-5.32 2.05-7.54 2.57-9.77 2.57-3.6 0-5.31-1.72-5.14-5.49l-11.82 4.28c-5.66 2.06-8.05 1.55-8.23-2.9l-8.9 3.42c-5.49 2.06-7.89-1.03-7.03-4.45l-11.82 4.28c-1.03.34-2.23.86-3.26.86-1.54 0-3.42-1.03-3.77-2.4a15.41 15.41 0 0 1-8.4 2.4c-4.27 0-5.99-1.89-5.99-6.52 0-4.96 7.88-17.3 18.5-17.3 2.4 0 4.8.86 6.34 2.4l1.2-1.89h10.46L203.88 28.8l12-4.8 7.02-10.63h10.28L222.9 28.8l8.05-3.1 8.06-12.33h10.45L239 28.8l10.96-4.12 14.91-22.61h10.45l-3.77 5.65h9.6l-3.26 4.97h-9.6l-9.42 13.88c-1.54 2.23-.69 3.6 2.4 2.4l8.22-3.09c1.2-7.02 7.37-13.02 16.97-13.02 6 0 8.73 3.25 9.59 6.17l14.05-5.66h10.45L318 17.31l7.54-3.43c6.85-3.26 8.4 1.71 8.05 3.77l8.23-3.77c7.54-3.43 8.73 2.74 7.2 4.97l-7.03 10.28 8.22-3.09c.86-4.11 4.8-13.2 17.13-13.2 6 0 9.25 3.44 9.77 8.4l9.76-4.45L397.5 1.03h10.28l-8.4 12.68c1.89-.52 3.94-.86 5.66-.86 4.96 0 7.2 6.17 2.91 12.85l8.57-3.26 6.16-9.08h10.28L422.67 28.8l11.83-4.63L449.92.86h10.45l-18.68 27.93 11.82-4.63 7.2-10.8h10.28L460.7 28.8l11.48-4.46 1.88 4.97-17.13 6.16c-1.88.7-3.08 1.2-4.45 1.2-2.57 0-4.29-2.4-3.6-5.13l-10.28 3.6c-1.89.68-3.26 1.54-4.8 1.54-3.25 0-4.63-2.4-3.94-5.14l-10.97 3.93c-1.88.7-3.08 1.2-4.45 1.2-3.08 0-4.97-3.6-2.74-6.85l-15.08 5.48c-6.34 2.23-17.13 2.58-17.13-5.14 0-1.36.68-2.9 1.54-4.45l.86-1.37-5.83 2.74a10.04 10.04 0 0 1-1.71 2.91c-3.09 3.94-8.74 6.69-14.74 6.69-4.45 0-7.2-1.89-9.08-5.49l-12.68 4.8c-6.34 2.4-9.08-1.88-6.5-5.83l6.33-9.42-8.56 3.94-7.88 11.48h-9.94l10.28-15.42-8.57 3.94-7.7 11.48H295.2l9.94-15.08-9.08 3.6c-2.05 7.37-9.6 12-16.28 12-6 0-8.9-2.4-9.93-5.66M463.97 4.97c0-2.74 3.42-4.97 6.5-4.97 3.43 0 5.49 2.06 5.49 4.28 0 2.92-3.43 4.97-6.51 4.97-3.43 0-5.48-2.05-5.48-4.28M432.6 0c3.26 0 5.31 2.06 5.31 4.28 0 2.92-3.25 4.97-6.5 4.97s-5.32-2.05-5.32-4.28c0-2.74 3.25-4.97 6.51-4.97"/></svg>